<?xml version="1.0" encoding="UTF-8" standalone="no"?><!-- Generator: Gravit.io --><svg xmlns="http://www.w3.org/2000/svg" xmlns:xlink="http://www.w3.org/1999/xlink" style="isolation:isolate" viewBox="0 0 400 400" width="400pt" height="400pt"><defs><clipPath id="_clipPath_m45FiYnBSrOV1brRNQmK9zbAW0bUc2WC"><rect width="400" height="400"/></clipPath></defs><g clip-path="url(#_clipPath_m45FiYnBSrOV1brRNQmK9zbAW0bUc2WC)"><g><g><rect x="87.5" y="131.25" width="62.5" height="137.5" transform="matrix(1,0,0,1,0,0)" fill="rgb(22,23,26)"/><rect x="50" y="155" width="31.25" height="90" transform="matrix(1,0,0,1,0,0)" fill="rgb(22,23,26)"/></g><g><rect x="250" y="131.25" width="62.5" height="137.5" transform="matrix(-1,0,0,-1,562.5,400)" fill="rgb(22,23,26)"/><rect x="318.75" y="155" width="31.25" height="90" transform="matrix(-1,0,0,-1,668.75,400)" fill="rgb(22,23,26)"/></g><rect x="156.25" y="185" width="87.5" height="30" transform="matrix(1,0,0,1,0,0)" fill="rgb(22,23,26)"/></g><mask id="_mask_Cphhq19dGcTwzqMvK3whdb8U90bpsueK"><circle vector-effect="non-scaling-stroke" cx="200" cy="200" r="200" fill="white" stroke="none"/></mask><circle vector-effect="non-scaling-stroke" cx="200" cy="200" r="200" fill="none"/><circle vector-effect="non-scaling-stroke" cx="200" cy="200" r="200" fill="none" mask="url(#_mask_Cphhq19dGcTwzqMvK3whdb8U90bpsueK)" stroke-width="40" stroke="rgb(22,23,26)" stroke-linejoin="miter" stroke-linecap="square" stroke-miterlimit="3"/></g></svg>