<?xml version="1.0" encoding="UTF-8" standalone="no"?><!-- Generator: Gravit.io --><svg xmlns="http://www.w3.org/2000/svg" xmlns:xlink="http://www.w3.org/1999/xlink" style="isolation:isolate" viewBox="0 0 1700 400" width="1700pt" height="400pt"><defs><clipPath id="_clipPath_6LQZdpnYuKxi6iK0KfdYEKzsgVtHoBvN"><rect width="1700" height="400"/></clipPath></defs><g clip-path="url(#_clipPath_6LQZdpnYuKxi6iK0KfdYEKzsgVtHoBvN)"><g><g><rect x="87.5" y="131.25" width="62.5" height="137.5" transform="matrix(1,0,0,1,0,0)" fill="rgb(22,23,26)"/><rect x="50" y="155" width="31.25" height="90" transform="matrix(1,0,0,1,0,0)" fill="rgb(22,23,26)"/></g><g><rect x="250" y="131.25" width="62.5" height="137.5" transform="matrix(-1,0,0,-1,562.5,400)" fill="rgb(22,23,26)"/><rect x="318.75" y="155" width="31.25" height="90" transform="matrix(-1,0,0,-1,668.75,400)" fill="rgb(22,23,26)"/></g><rect x="156.25" y="185" width="87.5" height="30" transform="matrix(1,0,0,1,0,0)" fill="rgb(22,23,26)"/></g><mask id="_mask_bEu2sjLRfksjuNLpCtnQTqGIQqwInWGn"><circle vector-effect="non-scaling-stroke" cx="200" cy="200" r="200" fill="white" stroke="none"/></mask><circle vector-effect="non-scaling-stroke" cx="200" cy="200" r="200" fill="none"/><circle vector-effect="non-scaling-stroke" cx="200" cy="200" r="200" fill="none" mask="url(#_mask_bEu2sjLRfksjuNLpCtnQTqGIQqwInWGn)" stroke-width="40" stroke="rgb(22,23,26)" stroke-linejoin="miter" stroke-linecap="square" stroke-miterlimit="3"/><g clip-path="url(#_clipPath_wgWm8LL7oBdpwlLqr6M4R26Hy1psoyO7)"><text transform="matrix(1,0,0,1,500,267.9)" style="font-family:'DM Sans';font-weight:700;font-size:200px;font-style:normal;fill:#16171a;stroke:none;">GoGummies</text></g><defs><clipPath id="_clipPath_wgWm8LL7oBdpwlLqr6M4R26Hy1psoyO7"><rect x="0" y="0" width="1200" height="261" transform="matrix(1,0,0,1,500,69.5)"/></clipPath></defs></g></svg>